PathFileType	4	(X/Y/Z)	66_2_45_p0_0-242_filt_butterworth.trc
DataRate	CameraRate	NumFrames	NumMarkers	Units	OrigDataRate	OrigDataStartFrame	OrigNumFrames
59.0	59.0	5	27	m	59.0	0	242
Frame#	Time	RHip			RKnee			RAnkle			RBigToe			RSmallToe			RHeel			LHip			LKnee			LAnkle			LBigToe			LSmallToe			LHeel			Neck			Head			Nose			RShoulder			RElbow			RWrist			RThumb			RIndex			RPinky			LShoulder			LElbow			LWrist			LThumb			LIndex			LPinky			
		X1	Y1	Z1	X2	Y2	Z2	X3	Y3	Z3	X4	Y4	Z4	X5	Y5	Z5	X6	Y6	Z6	X7	Y7	Z7	X8	Y8	Z8	X9	Y9	Z9	X10	Y10	Z10	X11	Y11	Z11	X12	Y12	Z12	X13	Y13	Z13	X14	Y14	Z14	X15	Y15	Z15	X16	Y16	Z16	X17	Y17	Z17	X18	Y18	Z18	X19	Y19	Z19	X20	Y20	Z20	X21	Y21	Z21	X22	Y22	Z22	X23	Y23	Z23	X24	Y24	Z24	X25	Y25	Z25	X26	Y26	Z26	X27	Y27	Z27	
0	0.0	0.5392978253691304	0.5994058358862762	1.1192208503541274	0.5452611914171144	0.18136895498707373	1.1307782300705136	0.5325471035215803	-0.21676631303924873	1.130714390913464	0.4945261954913215	-0.22406608904350453	0.9092984898858849	0.55896590337191	-0.21907509489630506	0.9226591140120537	0.5049302600785985	-0.3019963351762719	1.2145770747236562	0.33100319455236127	0.5984808867351431	1.1282495777001975	0.3247751798735352	0.1832318680525014	1.1273044433864146	0.3210432237001118	-0.19925639317682703	1.13685773289337	0.32188244152206386	-0.19262045135355932	0.9085625322368792	0.2708902879230463	-0.21754108886631304	0.9822235001899094	0.3436941493081117	-0.26056622303227384	1.198184324042068	0.4464913727381561	1.1709899575467269	1.1494866307266283	0.44214217692525404	1.4172217380156942	1.1554209128584265	0.42628422229315793	1.3044573554251178	1.005093213466969	0.5825937004743921	1.0873379913001284	1.0831995418513019	0.6469059402246629	0.8255071772566349	1.080161275685068	0.48629695187603417	0.7522540353375594	0.923549232099959	0.4069724432351123	0.6895745764027221	0.909034925766634	0.39593783982578806	0.6791895892980948	0.9217885288180973	0.39937055045494807	0.6611382392606739	0.9342404259403021	0.30398941604732105	1.090011471705417	1.164270886203023	0.21911961210348804	0.8374179782797163	1.1167809768258725	0.3417947220393547	0.7570534678971903	0.9239850891831471	0.43144162380402856	0.7052175118396112	0.9005185235915033	0.43637180345867654	0.6884156289230526	0.8985599713529514	0.41187241068087244	0.6499038460089263	0.9035202286789814	
1	0.0169491525423728	0.5393707394516157	0.5988715464867187	1.118727358775525	0.5458897720913931	0.17799962275256476	1.1329088355629255	0.531763017342744	-0.21962963300447763	1.131380390260782	0.49372423561477885	-0.21434901579298096	0.8957389820585075	0.560841694131499	-0.21227284976899885	0.9168665030372919	0.5032911985692896	-0.301449609539816	1.211225347094516	0.33072502989842345	0.5993226798637484	1.125350058955907	0.32541686382726404	0.17933539945525317	1.129407090280333	0.32095723024373374	-0.198529790676852	1.1366516937353086	0.3233850340320827	-0.19484097959202085	0.9118666451652055	0.27111810051117113	-0.21755922320323182	0.9822807805494089	0.3440638371959	-0.2615586755892551	1.198471074465762	0.44642396438492304	1.1710289188149419	1.149416989236627	0.44243909593693004	1.417280038188137	1.1539499268219573	0.42652045786353254	1.3060437808297076	1.0047101212566176	0.584162729698041	1.0875832015051894	1.0834546857897802	0.647281833598998	0.8266827321771778	1.0777040856948188	0.48554864904411343	0.7513798750010784	0.9254008703785583	0.40666909576499805	0.6887308352905086	0.9093735642611813	0.3949147835336784	0.6736912521732417	0.9309412830749888	0.4008203844228245	0.6591932638042346	0.933937346719178	0.30417188774194404	1.092091355660693	1.164410768821734	0.21891560169337537	0.8402361424659082	1.1159570768197118	0.34420268350793404	0.7591752744911606	0.9253454147755142	0.4361203195329966	0.7080439969164848	0.8933771041078354	0.43695372033858954	0.6885127949933342	0.8987244580573635	0.4119795171472423	0.650608140597168	0.9026963896040395	
2	0.0338983050847457	0.5394117638715067	0.5984424491692428	1.1183754546200346	0.5463016505701218	0.17536975609013067	1.1343140241973435	0.531037484310092	-0.22209957903109556	1.1319749783848094	0.49320190706824374	-0.2082907398257991	0.8873160536098649	0.5619456318939783	-0.2080322215783329	0.913384239309694	0.5019453947979611	-0.3010490230227609	1.2085425671991887	0.3304991507202819	0.5999961774472267	1.1228526585276137	0.32588576743354797	0.1761817021327199	1.1309599148910767	0.3209059776936691	-0.19804093522824845	1.1365144082330148	0.3244666773409983	-0.19712817249300607	0.9151838128314843	0.2712643825617577	-0.21756834386796964	0.9823241195869722	0.34437962836291625	-0.2622482931554196	1.198651498484838	0.4463886526401665	1.1710531495535161	1.1493616879324382	0.44250584871635923	1.4173092795195914	1.1534471322948316	0.426566372015932	1.307153718167109	1.004695737673908	0.5853113374124382	1.087642407235402	1.0836405956742128	0.6472906413579517	0.8269442027929721	1.0775039524921304	0.48541689471303917	0.7512259699879115	0.9261213691566063	0.4066437194614956	0.6884721062126101	0.9094513043551236	0.39478394638758024	0.6711419409187274	0.9344493231430021	0.4018022875808455	0.6583939039924054	0.933245423188835	0.30424017425453603	1.0930592571726219	1.1644568409203244	0.21877239525800854	0.8419453626331994	1.1155022402070893	0.3454508698889856	0.7603658523240446	0.9261708501380513	0.4385565124009609	0.7097661981935097	0.8890853482525164	0.4372788439396961	0.6886561913262936	0.8986594363572856	0.4120649980651744	0.6508693425377172	0.902454989616224	
3	0.0508474576271186	0.5394267783262382	0.5981156633009114	1.1181518859653257	0.5465215953513052	0.17341466449065934	1.135069042476167	0.5303696669622443	-0.2241961097817145	1.1324905318303806	0.4928959420700611	-0.20517421014157225	0.8830193780702859	0.5624247561576541	-0.20584950365252722	0.9117460620720416	0.5008683016510347	-0.30077639959200053	1.2064623497044464	0.3303247136058502	0.6005178305566184	1.12074464051195	0.32619803228847133	0.17371658451192773	1.1320093218076168	0.32088550693103457	-0.19776482435371542	1.1364385089435332	0.3251710722634323	-0.1993105307335831	0.9182681256851645	0.2713432099447998	-0.21756917687407396	0.9823534810314479	0.34464379047392507	-0.26267255929922434	1.1987375902203956	0.44637959871573135	1.1710647809031025	1.1493181908883836	0.4424266336314799	1.417324398243511	1.1535789624717703	0.4264825035558328	1.3078695729071605	1.004904251466857	0.5861015679189538	1.0875637313573707	1.0837651608740209	0.6470103136941273	0.8264580893979617	1.079046066609015	0.4856674207625893	0.7514827206212378	0.9260121034704692	0.40679931708143624	0.6886345939617367	0.9093336583805502	0.3952816674846544	0.6708046724805156	0.9337770319035233	0.4023465474687896	0.6583449053086602	0.9324027018804321	0.3042220037958964	1.093161755077579	1.16443267060841	0.2186824060456588	0.842766655583753	1.1153343321643359	0.3457705775868949	0.7607671746612858	0.9265498432348562	0.4391995018744301	0.7105472124365765	0.8871656752054626	0.43736278035607484	0.6888163902466523	0.8984398865929226	0.41213054735772503	0.6507775879155953	0.9026500203439011	
4	0.0677966101694915	0.5394216625132455	0.597888308248787	1.1180434008890687	0.546574374932948	0.17206965744503977	1.1352491369017945	0.5297587278378206	-0.2259391839189472	1.132919427142327	0.49274307283857594	-0.2042823757399134	0.8818386289700993	0.5624261064208326	-0.20522098931980184	0.9114857105671159	0.5000353720149326	-0.3006135632144289	1.2049183092770603	0.33020087514304186	0.6009040902629642	1.1190132690055468	0.32636979998811866	0.17188585501990233	1.1326017156189256	0.3208918588369468	-0.1976764555759523	1.1364166284239094	0.32554191961400625	-0.20121655499082072	0.9208736741756944	0.271368658530291	-0.21756244823509227	0.9823688286116858	0.3448585911936911	-0.26286895758912543	1.1987413437935346	0.44639096382346266	1.1710659440043532	1.1492839621787845	0.4422856490502304	1.4173403305933485	1.1540118505474934	0.42632939128871145	1.308273750519703	1.0051898513834812	0.5865954655189577	1.0873952967377007	1.0838362707586249	0.6465188008001285	0.8253908922860904	1.0818156185774843	0.4860659590725415	0.7518405272242366	0.925374448356514	0.4070388913816514	0.6890545033305986	0.9090861386695501	0.3961442859220616	0.6719424638045701	0.9303887922379384	0.4024834516264352	0.6586510132364722	0.9316472293251283	0.30414510457682464	1.0926454282119384	1.164361825995607	0.21863804730459735	0.8429210381197312	1.115371217867781	0.3453931030060473	0.7605212147683285	0.9265708420300263	0.43849858741991304	0.710550136411576	0.8871405041465903	0.4372211356818044	0.6889639640791316	0.8981407891044796	0.41217785894795045	0.6504230128158232	0.9031354734154375	
